<svg width="104" height="32" viewBox="0 0 104 32" fill="none" xmlns="http://www.w3.org/2000/svg">
<path d="M8.68547 24.4841C9.70391 26.2851 11.6313 27.4241 13.631 27.9436C15.6307 28.4632 17.725 28.4377 19.7907 28.4093C26.0913 28.3225 32.3919 28.2363 38.6925 28.1494C40.5221 28.1244 42.4156 28.085 44.072 27.3075C45.2448 26.757 46.2314 25.8646 47.3997 25.3037C50.5171 23.8078 54.1719 24.917 57.6072 25.2931C61.7761 25.75 65.9745 25.071 70.1632 24.8608C70.5543 24.8414 70.9631 24.8286 71.3184 24.9943C71.8408 25.2374 65.2255 26.6529 69.2818 27.2754C71.2599 27.5791 76.1003 27.2098 78.0988 27.3056C83.2537 27.5525 88.2817 27.5538 92.8103 27.5337C93.7516 27.5295 95.4449 27.1218 95.6475 26.2005C95.9358 24.8888 94.2343 24.1196 92.9125 23.8992C83.9545 22.4068 74.8382 21.876 65.7681 22.3186C54.5687 22.8657 43.4289 24.8909 32.2225 24.5131C24.8246 24.2637 17.4206 22.9685 10.0581 23.7388C9.2885 23.8196 8.35341 24.0655 8.17805 24.8209C8.76931 25.1499 9.36131 25.4797 9.95257 25.8087" fill="#1A1A1A"/>
<path d="M18.8706 26.7087C18.6822 26.341 18.4174 26.001 18.0605 25.7933C17.2126 25.2996 15.428 25.8573 15.428 25.8573C14.2185 26.0823 13.2632 27.2443 13.2386 28.4773C13.2131 29.7097 14.0928 30.8953 15.2674 31.2615C16.442 31.6284 17.8152 31.1721 18.5698 30.1981C19.3245 29.2249 19.4329 27.805 18.8706 26.7087Z" fill="#1A1A1A"/>
<path d="M27.671 26.6697C27.4826 26.302 27.2178 25.962 26.8609 25.7543C26.013 25.2606 24.2284 25.8183 24.2284 25.8183C23.019 26.0432 22.0637 27.2053 22.039 28.4383C22.0135 29.6707 22.8932 30.8563 24.0678 31.2225C25.2424 31.5894 26.6156 31.1331 27.3702 30.1591C28.1249 29.1859 28.2333 27.766 27.671 26.6697Z" fill="#1A1A1A"/>
<path d="M42.6637 26.6032C42.4753 26.2356 42.2105 25.8955 41.8536 25.6878C41.0057 25.1941 39.2211 25.7518 39.2211 25.7518C38.0116 25.9768 37.0563 27.1388 37.0316 28.3719C37.0062 29.6042 37.8859 30.7898 39.0605 31.156C40.2351 31.523 41.6083 31.0666 42.3629 30.0927C43.1176 29.1195 43.226 27.6996 42.6637 26.6032Z" fill="#1A1A1A"/>
<path d="M52.8356 26.5582C52.6472 26.1905 52.3824 25.8505 52.0255 25.6427C51.1776 25.149 49.3931 25.7067 49.3931 25.7067C48.1836 25.9317 47.2283 27.0937 47.2036 28.3268C47.1782 29.5591 48.0578 30.7447 49.2324 31.1109C50.407 31.4779 51.7802 31.0215 52.5349 30.0476C53.2895 29.0744 53.3979 27.6545 52.8356 26.5582Z" fill="#1A1A1A"/>
<path d="M60.8621 26.5226C60.6737 26.1549 60.4089 25.8149 60.052 25.6072C59.2041 25.1135 57.4195 25.6711 57.4195 25.6711C56.2101 25.8961 55.2548 27.0581 55.2301 28.2912C55.2046 29.5236 56.0843 30.7091 57.2589 31.0754C58.4335 31.4423 59.8067 30.9859 60.5613 30.012C61.3152 29.0388 61.4244 27.6189 60.8621 26.5226Z" fill="#1A1A1A"/>
<path d="M68.93 26.4868C68.7416 26.1192 68.4768 25.7791 68.1199 25.5714C67.272 25.0777 65.4874 25.6354 65.4874 25.6354C64.2779 25.8604 63.3226 27.0224 63.2979 28.2554C63.2725 29.4878 64.1522 30.6734 65.3268 31.0396C66.5014 31.4066 67.8746 30.9502 68.6292 29.9762C69.3839 29.003 69.4923 27.5831 68.93 26.4868Z" fill="#1A1A1A"/>
<path d="M83.0092 26.4244C82.8208 26.0567 82.556 25.7167 82.1991 25.509C81.3512 25.0153 79.5666 25.573 79.5666 25.573C78.3572 25.7979 77.4019 26.96 77.3772 28.193C77.3517 29.4254 78.2314 30.611 79.406 30.9772C80.5806 31.3441 81.9538 30.8878 82.7084 29.9138C83.4623 28.9406 83.5715 27.5207 83.0092 26.4244Z" fill="#1A1A1A"/>
<path d="M91.1989 26.3881C91.0105 26.0205 90.7457 25.6804 90.3888 25.4727C89.5416 24.979 87.7563 25.5367 87.7563 25.5367C86.5468 25.7617 85.5915 26.9237 85.5669 28.1568C85.5414 29.3891 86.4211 30.5747 87.5957 30.9409C88.7703 31.3079 90.1435 30.8515 90.8981 29.8775C91.652 28.9043 91.7612 27.4844 91.1989 26.3881Z" fill="#1A1A1A"/>
<path d="M103.085 12.9858C102.996 12.502 102.758 12.0601 102.511 11.6353C100.421 8.03776 97.4584 4.95412 93.9502 2.72559C68.5023 3.28204 26.0617 3.28887 26.0617 3.28887C20.4208 3.23722 14.78 3.17453 9.13976 3.10151C5.65216 5.36106 2.71621 8.47084 0.659107 12.0867C0.416108 12.5138 0.181273 12.9577 0.0973776 13.4423C0.00128427 13.9954 0.106752 14.5617 0.212157 15.114C0.846049 18.4246 1.47994 21.7352 2.11383 25.0466C4.09181 25.6466 5.82332 26.7208 7.75146 27.5251C7.90102 27.5878 9.32476 25.4259 11.7246 25.4624C17.4053 25.55 28.502 25.5693 40.809 25.5398C41.9143 25.5371 43.039 27.7453 44.1612 27.7418C53.3743 27.7135 63.0403 27.6596 71.4722 27.5876C72.5327 27.5785 73.5634 25.3585 74.5812 25.3489C82.7969 25.2712 89.5233 25.1758 92.9976 25.0697C94.5293 25.0231 95.439 27.1858 95.555 27.1359C97.4759 26.3138 98.9178 25.4208 101.171 24.6075C101.776 21.2914 102.38 17.9753 102.985 14.6584C103.085 14.106 103.186 13.5381 103.085 12.9858Z" fill="#9B9A9A"/>
<path d="M103.085 12.9837C102.996 12.4999 102.758 12.0581 102.511 11.6332C101.312 9.56907 99.8261 7.67426 98.114 6.01334C96.8422 4.77865 6.29183 5.16012 5.04047 6.39125C3.32855 8.0762 1.84711 9.99595 0.659114 12.0839C0.416115 12.511 0.18128 12.9549 0.0973847 13.4395C0.00129139 13.9926 0.106759 14.5589 0.212165 15.1112C0.5788 17.0264 0.945431 18.9409 1.31207 20.8562C1.38283 21.2251 8.41836 21.5211 18.7357 21.7385C20.1868 21.7689 20.3702 6.73306 21.9411 6.76074C40.0734 7.07759 66.5803 7.18193 83.5141 7.05528C84.665 7.0465 87.4652 22.089 88.5329 22.0784C97.3222 21.99 101.675 21.8433 101.719 21.6028C102.141 19.2868 102.563 16.9716 102.985 14.6556C103.085 14.1039 103.186 13.536 103.085 12.9837Z" fill="#EF311F"/>
<path d="M17.851 6.13178C17.5227 5.56355 16.8648 5.28789 16.2461 5.07175C14.7177 4.53685 9.15393 5.27122 8.37692 5.50975C7.53896 5.76625 6.87103 6.39196 6.25754 7.01889C4.43608 8.87898 0.445574 14.9819 1.81148 15.5352C2.49885 15.8129 9.05921 16.5864 10.3392 16.4952C11.5985 16.4057 12.9209 16.259 13.9487 15.5249C14.6935 14.9932 15.2077 14.2038 15.6882 13.4241C16.5468 12.0297 18.1395 8.83519 18.1007 7.19707C18.0917 6.82789 18.0348 6.45081 17.851 6.13178Z" fill="#1A1A1A"/>
<path d="M85.2955 5.83284C85.6188 5.26172 86.2742 4.98024 86.891 4.75862C88.4146 4.2102 93.9847 4.89521 94.7638 5.12685C95.604 5.37591 96.2774 5.99567 96.8964 6.61714C98.7343 8.46175 102.78 14.529 101.419 15.0937C100.734 15.3775 94.1804 16.2091 92.8997 16.1293C91.6396 16.0509 90.316 15.916 89.2817 15.191C88.5322 14.6659 88.011 13.8811 87.5237 13.1057C86.6527 11.7189 85.0317 8.5387 85.0561 6.9003C85.0603 6.53106 85.1138 6.15349 85.2955 5.83284Z" fill="#1A1A1A"/>
<path d="M19.2171 26.35C19.7268 24.8583 21.3506 16.0738 22.0589 13.2723C22.2266 12.6105 22.6756 11.2068 23.0019 10.6637C23.7042 9.49617 27.0994 9.61967 27.5673 9.83279C28.6911 10.3452 29.0363 12.2355 29.1191 13.8269C29.3313 17.9081 28.968 22.0397 28.0542 25.938L19.2171 26.35Z" fill="#1A1A1A"/>
<path d="M27.7966 11.8658C27.6397 11.6439 27.3946 11.5941 27.1679 11.5635C26.2275 11.4372 25.278 11.4281 24.3365 11.5362C23.9219 11.5837 23.4686 11.6823 23.1984 12.1073C22.999 12.4214 22.9421 12.852 22.8909 13.2605C22.6509 15.1873 22.3677 16.9934 22.0702 18.905C23.8448 18.9185 25.6346 19.0454 27.4093 19.0589C27.5828 19.0603 27.7872 19.0403 27.8804 18.8431C27.9314 18.7353 27.9338 18.5997 27.9347 18.4714C27.9484 16.5928 27.9621 14.7135 27.9766 12.8348C27.9795 12.4929 27.9719 12.1134 27.7966 11.8658Z" fill="white"/>
<path d="M40.0758 9.17898C39.8248 8.95753 39.4304 8.90842 39.067 8.87835C37.5559 8.7546 36.0314 8.74809 34.5184 8.85871C33.8523 8.90735 33.1232 9.00713 32.6883 9.43282C32.3668 9.74746 32.2739 10.1783 32.1911 10.5869C31.8003 12.5144 31.3406 14.3212 30.8578 16.2336C33.709 16.2424 36.5836 16.3645 39.4348 16.3732C39.7143 16.3742 40.0422 16.3536 40.1921 16.1561C40.2739 16.0482 40.2785 15.9126 40.2801 15.7843C40.3078 13.9056 40.3348 12.0262 40.3625 10.1476C40.3684 9.80559 40.3564 9.4261 40.0758 9.17898Z" fill="#1A1A1A"/>
<path d="M51.5898 9.12796C51.3388 8.9065 50.9444 8.8574 50.581 8.82732C49.0699 8.70357 47.5453 8.69706 46.0323 8.80768C45.3663 8.85633 44.6372 8.9561 44.2022 9.38179C43.8808 9.69643 43.7878 10.1272 43.7051 10.5359C43.3143 12.4633 42.8546 14.2702 42.3718 16.1826C45.223 16.1913 48.0976 16.3135 50.9488 16.3222C51.2283 16.3232 51.5562 16.3026 51.706 16.1051C51.7879 15.9972 51.7925 15.8615 51.7941 15.7333C51.8218 13.8546 51.8488 11.9752 51.8765 10.0965C51.8823 9.75456 51.8711 9.37507 51.5898 9.12796Z" fill="#1A1A1A"/>
<path d="M63.1038 9.07693C62.8528 8.85548 62.4584 8.80637 62.095 8.77629C60.5839 8.65255 59.0594 8.64604 57.5464 8.75666C56.8803 8.8053 56.1512 8.90508 55.7163 9.33077C55.3948 9.64541 55.3019 10.0762 55.2191 10.4849C54.8283 12.4123 54.3686 14.2192 53.8858 16.1316C56.7371 16.1403 59.6116 16.2624 62.4628 16.2712C62.7423 16.2721 63.0702 16.2515 63.2201 16.0541C63.302 15.9461 63.3065 15.8105 63.3081 15.6823C63.3358 13.8036 63.3628 11.9242 63.3905 10.0455C63.3964 9.70354 63.3851 9.32404 63.1038 9.07693Z" fill="#1A1A1A"/>
<path d="M74.6177 9.0259C74.3667 8.80445 73.9723 8.75535 73.6089 8.72527C72.0978 8.60152 70.5733 8.59501 69.0603 8.70563C68.3942 8.75428 67.6651 8.85405 67.2302 9.27974C66.9087 9.59438 66.8158 10.0252 66.733 10.4338C66.3422 12.3613 65.8825 14.1682 65.3997 16.0806C68.251 16.0893 71.1255 16.2114 73.9767 16.2201C74.2562 16.2211 74.5841 16.2005 74.734 16.0031C74.8159 15.8951 74.8204 15.7595 74.8221 15.6312C74.8498 13.7526 74.8767 11.8732 74.9044 9.99449C74.9095 9.65251 74.8983 9.27302 74.6177 9.0259Z" fill="#1A1A1A"/>
<path d="M29.0817 0.327959L19.1024 0.372192L19.1222 4.85954L29.1016 4.81531L29.0817 0.327959Z" fill="#9B9A9A"/>
<path d="M83.7228 0.0857714L73.7434 0.130005L73.7633 4.61736L83.7426 4.57312L83.7228 0.0857714Z" fill="#9B9A9A"/>
<path d="M75.3569 26.1012C75.8665 24.6095 77.4904 15.8249 78.1987 13.0235C78.3663 12.3617 78.8153 10.958 79.1417 10.4149C79.8439 9.24733 83.2392 9.37083 83.7071 9.58395C84.8309 10.0963 85.1761 11.9866 85.2589 13.5781C85.4711 17.6593 85.1077 21.7909 84.194 25.6891L75.3569 26.1012Z" fill="#1A1A1A"/>
<path d="M83.9342 11.617C83.7773 11.3951 83.5322 11.3453 83.3055 11.3147C82.3651 11.1884 81.4157 11.1793 80.4741 11.2874C80.0595 11.3349 79.6062 11.4335 79.336 11.8584C79.1366 12.1725 79.0797 12.6032 79.0286 13.0117C78.7885 14.9385 78.5053 16.7446 78.2078 18.6561C79.9825 18.6697 81.7723 18.7966 83.5469 18.8101C83.7205 18.8115 83.9248 18.7915 84.0181 18.5943C84.0691 18.4865 84.0714 18.3508 84.0723 18.2226C84.0861 16.344 84.0998 14.4646 84.1142 12.586C84.1171 12.2441 84.1096 11.8646 83.9342 11.617Z" fill="white"/>
</svg>
